<svg xmlns="http://www.w3.org/2000/svg" viewBox="0 0 132.08 34.9"><g id="Layer_2" data-name="Layer 2"><g id="Layer_1-2" data-name="Layer 1"><path d="M29.74,34.34V11.13c0-1.18.1-3.1.28-5.74h-.09q-.33,1-.6,1.83c-.18.51-.35.94-.5,1.26L17.11,34.34H15.77L4,8.65A22.27,22.27,0,0,1,3,5.34h-.1C3,6.06,3,6.88,3,7.8s0,2,0,3.08V34.34H0V.73H3.68L15.09,26c.24.53.47,1.08.7,1.63s.43,1.15.62,1.77h.14c.22-.62.41-1.19.59-1.71s.41-1.07.67-1.66L29.32.73h3.49V34.34Z"/><path d="M50.14,34.9A12.32,12.32,0,0,1,45.35,34a10.35,10.35,0,0,1-3.62-2.52,11.17,11.17,0,0,1-2.3-3.9,15.22,15.22,0,0,1-.8-5,15.76,15.76,0,0,1,.85-5.37,11.22,11.22,0,0,1,2.4-4,10.3,10.3,0,0,1,3.76-2.52,13.3,13.3,0,0,1,4.92-.87,12.25,12.25,0,0,1,4.69.86,9.55,9.55,0,0,1,3.54,2.47A10.9,10.9,0,0,1,61,17a16.5,16.5,0,0,1,.78,5.27A15.36,15.36,0,0,1,61,27.43a11.61,11.61,0,0,1-2.31,4A10.07,10.07,0,0,1,55,34,12.33,12.33,0,0,1,50.14,34.9Zm.23-22.52a9,9,0,0,0-3.56.67,7.58,7.58,0,0,0-2.73,2,8.87,8.87,0,0,0-1.75,3.18,14.14,14.14,0,0,0-.6,4.28,12.77,12.77,0,0,0,.6,4.05,9.24,9.24,0,0,0,1.73,3.1,7.4,7.4,0,0,0,2.7,2,9.69,9.69,0,0,0,7.13,0,6.91,6.91,0,0,0,2.62-1.94,8.47,8.47,0,0,0,1.63-3.13,14.73,14.73,0,0,0,.55-4.22c0-3.24-.71-5.71-2.15-7.42A7.6,7.6,0,0,0,50.37,12.38Z"/><path d="M77.43,34.05a7.4,7.4,0,0,1-3.38.78q-5.8,0-5.81-6.71V13H64V10.34h4.22v-6l3-1v7h6.19V13H71.24v14.7a5.94,5.94,0,0,0,.8,3.51,3.13,3.13,0,0,0,2.69,1.08,4.87,4.87,0,0,0,2.7-.84Z"/><path d="M83.13,4.27a2.11,2.11,0,0,1-1.5-.61A2.08,2.08,0,0,1,81,2.11,2,2,0,0,1,81.63.6a2.1,2.1,0,0,1,1.5-.6A2.32,2.32,0,0,1,84,.15a1.9,1.9,0,0,1,.69.44,1.94,1.94,0,0,1,.47.66,2,2,0,0,1,.18.86,2.14,2.14,0,0,1-.17.84,1.82,1.82,0,0,1-.46.69,2.3,2.3,0,0,1-.7.46A2.11,2.11,0,0,1,83.13,4.27ZM81.65,34.34v-24h3v24Z"/><path d="M100.22,34.34H97.36l-9.19-24h3.31l6.63,18.28a13.69,13.69,0,0,1,.78,2.93H99a14.55,14.55,0,0,1,.73-2.84l6.86-18.37h3.21Z"/><path d="M114.74,22.88a13.51,13.51,0,0,0,.58,4,8.49,8.49,0,0,0,1.62,3,7,7,0,0,0,2.57,1.87,8.57,8.57,0,0,0,3.41.64,12.16,12.16,0,0,0,7.66-2.84v3a14,14,0,0,1-8.34,2.46,11,11,0,0,1-4.39-.85,9,9,0,0,1-3.35-2.44,11.24,11.24,0,0,1-2.13-3.95,17.59,17.59,0,0,1-.75-5.35,14.68,14.68,0,0,1,.82-5,12.26,12.26,0,0,1,2.27-4,10.57,10.57,0,0,1,3.45-2.63,10,10,0,0,1,4.36-1,9.84,9.84,0,0,1,4.1.81,8.09,8.09,0,0,1,3,2.31,10.5,10.5,0,0,1,1.84,3.66,17.13,17.13,0,0,1,.63,4.83v1.5ZM129,20.25a9.15,9.15,0,0,0-1.78-5.81,5.84,5.84,0,0,0-4.76-2.06,7.31,7.31,0,0,0-2.83.53,6.72,6.72,0,0,0-2.28,1.56A8.33,8.33,0,0,0,115.71,17a12.29,12.29,0,0,0-.9,3.29Z"/></g></g></svg>